<svg xmlns="http://www.w3.org/2000/svg" width="24" height="24" viewBox="0 0 24 24"><path d="M21 9.662c-2.287.194-5.197 1.038-7 1.794v-1.064c1.933-.721 4.598-1.54 7-1.745v1.015zm0 2.031c-2.287.194-5.197 1.038-7 1.794v-1.064c1.933-.721 4.598-1.54 7-1.745v1.015zm0 2.031c-2.287.194-5.197 1.038-7 1.794v-1.064c1.933-.721 4.598-1.54 7-1.745v1.015zm0 2.031c-2.287.194-5.197 1.038-7 1.794v-1.064c1.933-.721 4.598-1.54 7-1.745v1.015zm0-9.951c-2.402.204-5.068 1.024-7 1.745v1.933c1.804-.756 4.713-1.6 7-1.794v-1.884zm-18 2.843c2.402.205 5.067 1.024 7 1.745v1.064c-1.803-.756-4.713-1.6-7-1.794v-1.015zm0 2.031c2.402.205 5.067 1.024 7 1.745v1.064c-1.803-.756-4.713-1.6-7-1.794v-1.015zm0 2.031c2.402.205 5.067 1.024 7 1.745v1.064c-1.803-.756-4.713-1.6-7-1.794v-1.015zm0 2.032c2.402.205 5.067 1.024 7 1.745v1.064c-1.803-.756-4.713-1.6-7-1.794v-1.015zm0-7.054c2.287.194 5.196 1.038 7 1.794v-1.933c-1.932-.72-4.598-1.54-7-1.744v1.883zm9-2.724c-3.063-1.671-7.776-2.755-12-2.963v17c4.289.206 8.195 1.249 12 3 3.805-1.751 7.711-2.794 12-3v-17c-4.224.208-8.937 1.292-12 2.963zm-10-.791c4.264.496 6.86 1.467 9 2.545v12.702c-2.968-1.184-5.939-1.95-9-2.271v-12.976zm20 12.975c-3.061.321-6.032 1.088-9 2.271v-12.701c2.187-1.103 4.757-2.051 9-2.544v12.974z"/></svg>